<svg width="26" height="26" viewBox="0 0 26 26" fill="none" xmlns="http://www.w3.org/2000/svg">
<path opacity="0.5" d="M1.08301 12.9999C1.08301 7.38235 1.08301 4.57357 2.82816 2.8284C4.57332 1.08325 7.3821 1.08325 12.9997 1.08325C18.6172 1.08325 21.4261 1.08325 23.1712 2.8284C24.9163 4.57357 24.9163 7.38235 24.9163 12.9999C24.9163 18.6174 24.9163 21.4263 23.1712 23.1714C21.4261 24.9166 18.6172 24.9166 12.9997 24.9166C7.3821 24.9166 4.57332 24.9166 2.82816 23.1714C1.08301 21.4263 1.08301 18.6174 1.08301 12.9999Z" fill="#0766FF"/>
<path d="M2.82816 23.171C4.57332 24.9162 7.3821 24.9162 12.9997 24.9162C18.6172 24.9162 21.4261 24.9162 23.1712 23.171C24.7883 21.5539 24.9069 19.0235 24.9157 14.1912H21.1504C20.0717 14.1912 19.5324 14.1912 19.0583 14.4092C18.5843 14.6273 18.2333 15.0367 17.5313 15.8557L16.8098 16.6975C16.1078 17.5165 15.7568 17.926 15.2827 18.1439C14.8086 18.362 14.2693 18.362 13.1907 18.362H12.8087C11.73 18.362 11.1907 18.362 10.7166 18.1439C10.2425 17.926 9.89156 17.5165 9.18957 16.6975L8.4681 15.8557C7.76612 15.0367 7.41513 14.6273 6.94106 14.4092C6.46698 14.1912 5.92764 14.1912 4.84899 14.1912H1.08301C1.09171 19.0235 1.21104 21.5539 2.82816 23.171Z" fill="#0766FF"/>
</svg>
